<?xml version="1.0" standalone="no"?>
<!DOCTYPE svg PUBLIC "-//W3C//DTD SVG 20010904//EN"
 "http://www.w3.org/TR/2001/REC-SVG-20010904/DTD/svg10.dtd">
<svg version="1.0" xmlns="http://www.w3.org/2000/svg"
 width="805.000000pt" height="417.000000pt" viewBox="0 0 805.000000 417.000000"
 preserveAspectRatio="xMidYMid meet">

<g transform="translate(0.000000,417.000000) scale(0.100000,-0.100000)"
fill="#000000" stroke="none">
<path d="M3910 4044 c-180 -34 -299 -74 -394 -131 -287 -172 -462 -449 -497
-783 -22 -217 36 -451 184 -745 137 -271 360 -567 656 -867 127 -130 136 -137
153 -121 14 12 21 13 32 4 27 -23 362 335 546 584 261 352 398 659 432 962 24
214 -35 456 -158 648 -171 267 -482 440 -809 450 -66 2 -131 1 -145 -1z m201
-184 c254 -25 503 -188 627 -410 46 -82 90 -224 103 -331 40 -323 -167 -768
-572 -1234 -116 -134 -234 -255 -247 -255 -43 0 -554 612 -530 635 3 3 27 -5
54 -19 171 -85 419 -104 589 -46 214 74 361 241 396 450 5 30 9 126 9 213 0
86 3 157 6 157 3 0 29 -20 57 -45 29 -25 54 -45 57 -45 3 0 17 15 32 34 l27
33 -67 60 c-37 33 -77 68 -89 78 -22 19 -23 25 -23 207 l0 188 -145 0 -145 0
0 -55 c0 -30 -2 -55 -5 -55 -3 0 -54 43 -113 95 -59 52 -110 95 -113 95 -5 0
-221 -188 -405 -353 -50 -45 -137 -122 -193 -171 l-102 -90 36 -35 35 -35 48
47 c26 26 51 47 55 47 4 0 7 -124 7 -275 0 -190 -3 -275 -11 -275 -6 0 -46 36
-89 79 -246 249 -268 642 -55 959 125 187 355 328 573 351 42 5 82 9 87 9 6 1
53 -3 106 -8z m95 -533 c67 -59 124 -107 128 -107 3 0 6 50 6 111 l0 110 53
-3 52 -3 3 -340 c1 -192 -2 -368 -7 -405 -15 -94 -70 -198 -134 -255 -53 -47
-134 -91 -185 -101 -27 -6 -29 -4 -45 55 -17 60 -17 62 3 83 25 27 26 78 3
107 -10 12 -35 24 -55 27 -72 12 -114 -70 -67 -130 21 -27 21 -29 5 -78 -9
-28 -16 -57 -16 -66 0 -13 -12 -14 -82 -9 -126 10 -268 60 -268 95 -1 9 -1
172 -1 361 l1 344 42 36 c24 20 84 72 133 116 50 44 125 111 169 148 l78 69
32 -29 c17 -16 86 -78 152 -136z"/>
<path d="M3872 2988 l3 -63 58 -3 57 -3 1 33 c1 18 2 47 3 63 1 30 1 30 -62
33 l-63 3 3 -63z"/>
<path d="M4050 2985 l0 -65 60 0 60 0 0 65 0 65 -60 0 -60 0 0 -65z"/>
<path d="M4103 2873 l-53 -4 0 -60 0 -59 60 0 60 0 0 65 c0 36 -3 64 -7 63 -5
-1 -32 -3 -60 -5z"/>
<path d="M3870 2810 l0 -60 66 0 67 0 -7 38 c-3 20 -6 47 -6 60 0 20 -4 22
-60 22 l-60 0 0 -60z"/>
</g>
</svg>
